# xmcd CD database file
#
# Track frame offsets:
#	150
#	15547
#	36530
#	57425
#	73745
#	91990
#	113815
#	141020
#	159582
#	183525
#	200230
#	223850
#	247905
#	262895
#	284205
#
# Disc length: 4018 seconds
#
# Revision: 2
# Processed by: cddbd v1.4b42PL1 Copyright (c) Steve Scherf et al.
# Submitted via: CDex 1.40Beta7
#
DISCID=ec0fb00f
DTITLE=Voodoo X - Vol. I: The Awakening
DYEAR=1900
DGENRE=Blues
TTITLE0=I'm on Fire
TTITLE1=Voodoo Queen
TTITLE2=A Lover like You
TTITLE3=Don't bother Me
TTITLE4=Into the Night
TTITLE5=What can I do
TTITLE6=The Awakening
TTITLE7=One Riff
TTITLE8=Have You had enough
TTITLE9=Like a Knife
TTITLE10=Happy Birthday
TTITLE11=Voodoo Queen (Ritual Mix)
TTITLE12=Air that I breathe
TTITLE13=Winterland
TTITLE14=Dirty Talk, Dirty Walk
EXTD=ID3G: 0
EXTT0=
EXTT1=
EXTT2=
EXTT3=
EXTT4=
EXTT5=
EXTT6=
EXTT7=
EXTT8=
EXTT9=
EXTT10=
EXTT11=
EXTT12=
EXTT13=
EXTT14=
PLAYORDER=
